<?xml version="1.0" encoding="utf-8"?>
<!DOCTYPE svg PUBLIC "-//W3C//DTD SVG 1.0//EN" "http://www.w3.org/TR/2001/REC-SVG-20010904/DTD/svg10.dtd">
<svg version="1.0" xmlns="http://www.w3.org/2000/svg" width="506px" height="493px" viewBox="0 0 506 493" preserveAspectRatio="xMidYMid meet">
 <g fill="#0060a4">
  <path d="M106 445 l0 -6 142.5 0 142.5 0 0 6 0 6 -142.5 0 -142.5 0 0 -6z"/>
  <path d="M113 407.1 c0 -1.3 4.6 -3.3 10.7 -4.5 4.6 -0.9 5.9 -1.6 6.1 -3.2 0.3 -1.9 1.2 -2.2 8 -2.7 17.7 -1.5 57.9 -2 58.6 -0.9 0.4 0.7 2.1 1.2 3.7 1.2 2.9 0 3 0.2 2.7 3.8 l-0.3 3.7 -12.4 0.5 c-8.8 0.4 -12.6 0.9 -12.9 1.8 -0.3 1 -7.4 1.2 -32.3 1.2 -17.5 -0.1 -31.9 -0.4 -31.9 -0.9z"/>
  <path d="M255 404.1 c0 -4.7 0.6 -5.2 9.5 -8.1 17.9 -5.8 29.8 -13.9 39.5 -27 9 -12.2 14.4 -23.1 18.9 -38 7.1 -23.5 14.6 -35.3 26.8 -41.8 12.3 -6.5 32.3 -6.9 44 -0.9 3.9 2.1 8.7 8.9 10.1 14.2 2.3 8.7 2.5 15 0.6 18.6 l-1.8 3.4 -1.2 -5.4 c-3 -13.1 -13.1 -19 -29.4 -17 -4.9 0.6 -7.5 1.6 -12.4 4.9 -14.6 10 -20.5 25.5 -16.1 42.5 2.5 9.7 6.9 15.2 17.7 22.6 10.8 7.4 13.8 16.2 8.3 24.3 -1.4 2 -2.5 4.1 -2.5 4.5 0 0.5 1.8 1.1 4 1.5 3.2 0.5 4 1 4 2.7 0 2.1 -0.2 2.1 -28 1.7 -15.4 -0.1 -28 0 -28 0.5 0 0.4 -14.4 0.7 -32 0.7 l-32 0 0 -3.9z"/>
  <path d="M134 351.8 c-2.5 -0.5 -4.8 -1.3 -5.3 -1.7 -0.4 -0.4 1.3 -2.3 3.8 -4.1 5.5 -4.2 11.3 -11.5 14.8 -19 3.2 -6.7 4.5 -17.6 3.5 -28 -0.8 -7.7 -1.4 -9.6 -6.8 -23.5 -5.9 -15.1 -10 -28.9 -13.1 -43.9 -3 -14.6 -3.1 -15.7 -2.7 -36.1 0.4 -19.7 0.6 -21.7 3.6 -32.5 9.1 -33.5 25.9 -59.1 51.1 -78 23.5 -17.8 48.3 -26.8 75.9 -27.6 15 -0.5 16.1 0.1 9.6 5.9 -4.9 4.3 -5.1 4.4 -14.1 7.1 -15.3 4.7 -24.4 8.6 -41.3 17.9 -6.7 3.6 -9 5.5 -10.1 8.5 -0.6 1.5 -1.7 2.2 -3.4 2.2 -2.7 0 -8.5 4.5 -8.5 6.7 0 0.7 -0.6 1.3 -1.4 1.3 -1.8 0 -9.6 8.5 -9.6 10.5 0 0.8 -0.6 1.5 -1.4 1.5 -1.6 0 -6.6 6.9 -6.6 9.2 0 0.9 -0.6 2.3 -1.3 3 -1.7 1.8 -10.1 20.1 -12.2 26.8 -1 3 -2.5 6 -3.3 6.6 -0.7 0.5 -1.4 2.3 -1.4 4 0 7.4 -2.3 30.4 -3 30.4 -0.4 0 -0.8 2 -0.8 4.5 0 3.1 0.4 4.5 1.4 4.5 0.9 0 1.5 2.1 2 7 0.4 3.8 0.5 7.4 0.2 7.9 -1 1.5 1.6 11.1 3 11.1 1.4 0 2.4 3.2 2.4 8.3 0 2.3 0.5 3.7 1.3 3.7 1.3 0 4.7 8.4 4.7 11.9 0 1.2 0.6 2.4 1.4 2.7 1.7 0.6 3.6 5.6 3.6 9.2 0 3.9 2.2 10.2 3.6 10.2 1.5 0 2.3 3.8 2.3 11 0 3.8 0.5 5.8 1.5 6.6 1.7 1.2 2.2 7.4 0.6 7.4 -0.6 0 -1 3 -1 7 0 4 0.4 7 1 7 0.6 0 1 1.5 1 3.3 0 5.4 -1.2 10.7 -2.4 10.7 -0.6 0 -1.6 1.6 -2.2 3.5 -0.6 1.9 -0.9 3.5 -0.7 3.5 2.5 0 23.2 -9.3 30.5 -13.7 13 -7.9 21.8 -15.3 36 -30.6 18.4 -19.8 29.4 -30.3 37.9 -35.9 l7.7 -5.1 -12.3 -11.9 c-6.8 -6.5 -14.2 -14.4 -16.6 -17.6 -2.4 -3.1 -4.7 -5.8 -5.1 -6 -0.5 -0.2 -0.8 -0.9 -0.8 -1.7 0 -0.7 -0.7 -1.8 -1.6 -2.6 -1.3 -1.1 -1.3 -0.7 0.2 3.2 0.9 2.4 2.3 4.9 3 5.5 0.8 0.6 1.4 2.3 1.4 3.8 0 1.5 0.7 4.3 1.5 6.3 0.8 1.9 1.5 4.8 1.5 6.4 0 2.7 -0.3 2.9 -3.9 2.9 -3.4 0 -4.2 -0.5 -6.7 -4.2 -1.6 -2.4 -3.2 -4.5 -3.5 -4.8 -0.3 -0.3 -2.8 -3.9 -5.4 -8 -18.6 -28.5 -15.4 -69.7 7.5 -97 4 -4.8 4.5 -5.1 8.4 -4.8 l4.1 0.3 -0.3 9.1 c-0.2 5.9 0.2 10.6 1.1 13.5 0.8 2.4 1.8 5.6 2.1 7.1 0.6 2.8 9.2 11.8 11.3 11.8 0.7 0 1.6 0.6 2 1.3 0.4 0.8 3.5 2.6 6.8 4.1 5.7 2.6 6.5 2.7 16.5 2.1 l10.5 -0.7 4.2 4.1 c2.3 2.3 5.1 4.1 6.3 4.1 1.9 0 6 3.2 6 4.8 0 0.4 0.9 1.4 2 2.2 1.1 0.8 2 2.1 2 3 0 0.8 2.4 3.8 5.3 6.7 6.9 6.7 10.7 7.5 19.2 4.3 6.6 -2.4 14.5 -3.7 14.5 -2.3 0 1.8 -6.7 7.3 -12 9.7 -4 1.9 -7.2 2.6 -11.5 2.6 -7.7 0 -12.2 -2.7 -18.5 -11.1 -4.1 -5.4 -6.7 -7.6 -14 -11.9 -1.8 -1.1 -5.9 -1.5 -15.5 -1.5 -12.9 -0.1 -17.5 -0.9 -24.2 -4.3 -1.8 -0.9 -3.6 -1.3 -4 -0.8 -0.4 0.4 -0.8 3.6 -0.7 7.1 0.1 9.3 5.5 18.4 20 34.1 14.3 15.5 22.4 27.1 22.4 31.9 0 0.6 -1.5 1.6 -3.3 2.2 -7.3 2.2 -21.2 12.6 -33.9 25.4 -7.1 7.1 -13.6 14.1 -14.5 15.6 -4.2 6.6 -20.7 23.4 -30 30.6 -14.7 11.3 -27.4 16.8 -49.8 21.7 -10 2.2 -35.1 2.6 -43.5 0.8z"/>
 </g>
 <g fill="#006ab3">
  <path d="M354 439.5 l0 -2.5 18.5 0 18.5 0 0 2.5 0 2.5 -18.5 0 -18.5 0 0 -2.5z"/>
  <path d="M116 406.6 c0 -0.9 0.7 -1.6 1.5 -1.6 0.8 0 1.5 -0.4 1.5 -1 0 -1.5 5.2 -1.1 7.4 0.5 2.6 2 2 2.3 -4.7 3.1 -4.9 0.6 -5.7 0.4 -5.7 -1z"/>
  <path d="M171 406.5 c0 -0.8 0.6 -1.5 1.4 -1.5 0.8 0 1.6 -0.6 1.8 -1.2 0.3 -0.9 4 -1.4 12.4 -1.6 6.5 -0.2 12.3 -0.8 12.9 -1.3 0.5 -0.5 -0.3 -0.9 -2.2 -0.9 -1.8 0 -3.5 -0.4 -3.8 -1 -0.3 -0.5 -4.2 -1 -8.6 -1 -7.2 0 -7.9 -0.2 -7.9 -2 0 -1.8 0.7 -2 5.9 -2 22.6 0 52 -8.1 70.5 -19.3 21.3 -12.9 31.8 -24.8 51.4 -58.2 13.3 -22.6 25.2 -33.5 41.6 -38.4 6.9 -2.1 9.4 -2.3 20.5 -1.9 10.8 0.4 13.4 0.8 18.2 3 6.5 3 13.1 8.6 16.6 14.1 3.4 5.4 6.2 17.3 5.1 21.2 -3.2 10.1 -4.7 10.6 -4.7 1.6 0.1 -20.7 -13.2 -31.4 -35.2 -28.3 -10.2 1.5 -18.3 5.6 -24.9 12.9 -6.4 7 -11.1 16.7 -16.1 33.3 -4.5 14.9 -9.9 25.8 -18.9 38 -9.7 13.1 -21.6 21.2 -39.5 27 -3.8 1.2 -7.6 2.7 -8.2 3.3 -1.9 1.4 -1.6 2.7 0.7 2.7 1.3 0 1.8 0.5 1.4 1.5 -0.5 1.3 -6.5 1.5 -45.5 1.5 -39.2 0 -44.9 -0.2 -44.9 -1.5z"/>
  <path d="M313 406.5 c0 -0.8 0.7 -1.5 1.5 -1.5 0.8 0 1.5 -0.4 1.5 -0.8 0 -0.5 14.1 -0.8 31.4 -0.6 23.9 0.2 31.9 0.5 33.5 1.6 1.1 0.7 2.1 1.6 2.1 2 0 0.5 -15.7 0.8 -35 0.8 -30.4 0 -35 -0.2 -35 -1.5z"/>
  <path d="M129.8 398.2 c-0.5 -1.7 0.3 -2 7.6 -2.6 4.4 -0.3 13.8 -0.6 20.9 -0.6 10.4 0 12.7 0.3 12.7 1.5 0 1.9 -3.1 2.3 -23.6 3 -16.3 0.5 -17.2 0.5 -17.6 -1.3z"/>
  <path d="M167 343.5 c0 -0.8 0.8 -1.5 1.8 -1.6 1 0 1.2 -0.3 0.5 -0.6 -0.9 -0.3 -0.7 -1.5 0.7 -4.3 1.1 -2.2 2 -4.6 2 -5.5 0 -0.8 0.7 -1.5 1.5 -1.5 0.8 0 1.5 -0.4 1.5 -1 0 -0.5 -0.4 -1 -1 -1 -0.5 0 -1 -0.7 -1 -1.5 0 -0.8 0.7 -1.5 1.5 -1.5 0.8 0 1.5 -0.7 1.5 -1.5 0 -0.8 -0.4 -1.5 -1 -1.5 -0.6 0 -1 -4 -1 -10 0 -7.3 0.3 -10 1.3 -10 0.8 0 0.7 -0.3 -0.2 -0.9 -2 -1.3 -4.5 -13.3 -3 -14.2 0.7 -0.4 0.4 -0.9 -0.7 -1.3 -1.6 -0.6 -1.6 -0.8 -0.4 -1.6 1.3 -0.8 1.3 -1 -0.1 -1 -1.1 0 -2.1 -1.6 -2.9 -4.7 -0.7 -2.7 -1.8 -5.4 -2.3 -6.1 -0.8 -1 -0.7 -1.6 0.4 -2.3 0.9 -0.6 1 -0.9 0.2 -0.9 -0.7 0 -1 -0.7 -0.7 -1.5 0.4 -1 0 -1.5 -1.2 -1.5 -1.6 0 -1.7 -0.2 -0.4 -1 0.8 -0.5 1 -1 0.4 -1 -0.7 0 -1.9 -1.2 -2.9 -2.6 -1.4 -2.2 -1.5 -2.8 -0.4 -3.5 1.1 -0.7 1.1 -0.9 0.1 -0.9 -0.7 0 -1 -0.4 -0.7 -1 0.3 -0.5 -0.1 -1 -0.9 -1 -1.9 0 -2.2 -2 -0.3 -2 0.6 0 0.4 -0.5 -0.7 -1.1 -1.5 -0.9 -1.6 -1.3 -0.5 -2 1.1 -0.7 1.1 -0.9 -0.3 -0.9 -2.2 0 -4.3 -6 -2.6 -7.3 1 -0.6 1 -1 0.1 -1.3 -0.7 -0.3 -0.9 -1.2 -0.6 -2 0.3 -0.8 -0.1 -1.4 -0.9 -1.4 -2.1 0 -5.7 -15.8 -3.9 -16.9 1 -0.6 0.9 -1 -0.3 -1.4 -1.7 -0.7 -2.2 -3.7 -0.6 -3.7 0.6 0 1 -0.9 1 -2 0 -1.1 -0.7 -2 -1.5 -2 -1.2 0 -1.5 -1.5 -1.5 -7.4 0 -5 0.4 -7.6 1.3 -7.9 0.9 -0.4 0.9 -0.6 0 -0.6 -0.7 -0.1 -1.3 -0.7 -1.3 -1.5 0 -0.8 0.6 -1.7 1.3 -1.9 1 -0.4 1 -0.6 0 -0.6 -1.9 -0.1 -1.7 -6.1 0.2 -6.1 1 0 1.5 -1 1.5 -3 0 -1.6 -0.4 -3 -1 -3 -0.5 0 -1 -0.7 -1 -1.5 0 -0.8 0.7 -1.5 1.5 -1.5 1.7 0 2.1 -2.6 0.4 -3.2 -1.5 -0.5 0.8 -10 2.8 -11.6 1 -0.7 1.2 -1.2 0.5 -1.2 -0.7 0 -1.2 -0.4 -1.2 -1 0 -0.5 0.7 -1 1.6 -1 1 0 1.4 -0.6 1 -1.5 -0.3 -0.8 -0.1 -1.5 0.4 -1.5 2.3 0 0.3 19.6 -2.1 21.1 -1.3 0.8 -1.8 30.9 -0.5 30.9 0.5 0 0.6 2.1 0.3 4.6 -0.3 2.9 0.2 7.7 1.4 12.6 1 4.4 1.9 9.4 1.9 11.3 0 2.5 0.5 3.5 2 4 1.2 0.4 2 1.5 2 2.8 0 4.7 2.5 12.7 4.1 13.2 1.2 0.4 1.9 2.2 2.4 6 0.3 3 1 5.5 1.5 5.5 0.5 0 1.9 2.7 3.1 6 1.2 3.3 2.6 6 3 6 0.5 0 0.9 1.5 0.9 3.3 0 1.7 0.5 4.8 1.1 6.7 0.5 1.9 1.4 10.5 1.9 19 0.8 14.9 0.1 24.3 -2.5 30.3 -0.5 1.2 -0.3 1.7 0.9 1.7 3.5 0 1.4 2.8 -2.8 3.9 -5.8 1.4 -6.6 1.4 -6.6 -0.4z"/>
  <path d="M185 337.5 c0 -2.2 0.4 -2.5 3.6 -2.5 4.4 0 4.2 1.8 -0.4 3.7 -3.1 1.3 -3.2 1.2 -3.2 -1.2z"/>
  <path d="M213 322.5 c0 -2.2 0.4 -2.5 3.8 -2.5 l3.7 0.1 -2.8 2.4 c-3.6 3.2 -4.7 3.1 -4.7 0z"/>
  <path d="M243 295.7 c0 -3.4 0.2 -3.7 3 -3.7 2.7 0 3 -0.3 3 -3.3 0 -4 2.6 -6.7 6.4 -6.7 3.3 0 3.1 0.4 -6.1 10.6 l-6.3 6.9 0 -3.8z"/>
  <path d="M263 274.2 c0 -3.2 3.8 -7.2 7 -7.2 1.3 0 2 -0.7 2 -2 0 -1.6 0.7 -2 3.8 -2 l3.7 0 -5.5 5 c-3 2.8 -6.7 5.9 -8.2 7.1 l-2.8 2 0 -2.9z"/>
  <path d="M277 247.7 c-6.3 -5.7 -14.2 -13.7 -17.4 -17.8 -8.7 -10.8 -8.7 -10.9 -7.7 -7.4 0.5 1.7 2.3 6.4 4 10.5 1.7 4.1 3.1 8.7 3.1 10.3 0 2.4 -0.4 2.7 -3.1 2.7 -3.8 0 -6.9 -1.6 -6.9 -3.5 0 -0.8 -0.4 -1.5 -0.9 -1.5 -1.3 0 -10.5 -12.8 -14.6 -20.3 -6.4 -11.8 -7.9 -18.4 -8 -34.7 0 -18.2 2.4 -30 6.1 -30 l2.2 0 -1.9 6.3 c-6.3 20.7 -3.4 42.2 8.3 60.2 2.8 4.4 5.4 8.2 5.7 8.5 0.3 0.3 1.9 2.4 3.5 4.8 1.6 2.3 3.3 4.2 3.8 4.2 0.5 0 0.7 -0.3 0.5 -0.7 -0.7 -1.3 -3.5 -7.7 -4.1 -9.5 -0.3 -1.1 0 -1.8 0.7 -1.8 0.7 0 0.5 -0.5 -0.4 -1 -2.2 -1.3 -6.7 -15.2 -5.1 -15.8 0.8 -0.2 0.7 -0.9 -0.4 -2 -1.1 -1.1 -1.3 -1.7 -0.5 -2 1.6 -0.5 1.3 -3.2 -0.4 -3.2 -1.8 0 -2 -2.6 -0.2 -3.4 1 -0.5 1 -0.7 0 -1.2 -0.7 -0.3 -1.3 -1.9 -1.3 -3.5 0 -1.7 0.4 -2.8 0.8 -2.5 0.5 0.3 3.3 5.4 6.2 11.3 2.9 5.9 5.6 11 5.9 11.3 0.3 0.3 2.6 3.1 5.1 6.4 2.4 3.2 10.7 11.8 18.3 19.2 11.9 11.4 13.8 13.6 12.7 14.9 -0.7 0.8 -1.5 1.5 -1.9 1.5 -0.4 0 -5.8 -4.6 -12.1 -10.3z"/>
  <path d="M336.5 205.6 c-3.8 -1.7 -12.9 -11.2 -12 -12.6 0.3 -0.5 -0.1 -1 -1 -1 -0.9 0 -1.4 -0.4 -1.1 -0.9 0.3 -0.5 -0.1 -1.2 -1 -1.5 -0.9 -0.4 -1.4 -0.9 -1.1 -1.2 0.9 -1 -3.2 -4.4 -5.3 -4.4 -1.2 0 -4 -1.8 -6.3 -4.1 -4.1 -3.9 -4.3 -4 -9.2 -3.3 -10.6 1.5 -20.5 0.3 -20.5 -2.5 0 -0.4 6.8 -0.8 15.2 -0.9 l15.2 -0.2 2.9 3.5 c1.6 1.9 3.5 3.5 4.3 3.5 0.8 0 1.4 0.4 1.4 0.9 0 0.5 0.9 1.1 2.1 1.3 1.3 0.2 3 1.9 4.3 4.3 1.1 2.2 2.7 4.4 3.4 4.8 0.6 0.4 1.2 1.9 1.2 3.2 0 1.8 0.5 2.5 2 2.5 1 0 3.6 1.1 5.6 2.5 2.1 1.4 4.8 2.8 6.1 3.1 1.4 0.4 2.3 1.4 2.3 2.5 0 2.3 -3.9 2.5 -8.5 0.5z"/>
  <path d="M346 205 c0 -1.7 0.7 -2 4.5 -2 4.9 0 6.4 2.3 2.3 3.4 -4.5 1.2 -6.8 0.7 -6.8 -1.4z"/>
  <path d="M273.8 172.8 c-1.6 -0.5 -2.8 -1.4 -2.8 -1.9 0 -0.5 -0.9 -1.3 -1.9 -1.7 -3.1 -1.2 -11 -9.1 -11.7 -11.7 -0.3 -1.4 -1.1 -2.5 -1.8 -2.5 -0.6 0 -0.4 -0.5 0.4 -1 1.2 -0.8 1.2 -1 -0.5 -1 -1.6 0 -1.7 -0.2 -0.5 -1 1.2 -0.8 1.2 -1 -0.4 -1.6 -1.4 -0.5 -1.5 -0.9 -0.4 -1.5 1 -0.6 0.9 -1.1 -0.7 -2.3 -1.1 -0.9 -1.4 -1.6 -0.7 -1.6 0.6 0 1.2 -0.7 1.2 -1.5 0 -3.2 1.6 -1.2 3.3 4.3 1.4 4.4 3.2 7.1 7.8 11.7 3.2 3.3 5.9 6.6 5.9 7.3 0 0.6 0.9 1.2 1.9 1.2 3.5 0 5.1 1.2 5.1 3.6 0 2.6 -0.2 2.7 -4.2 1.2z"/>
  <path d="M155.5 153 c-0.3 -0.5 0 -1 0.7 -1 1 0 0.9 -0.3 -0.2 -1 -1.2 -0.8 -1.2 -1 0.4 -1.6 1.4 -0.5 1.5 -0.9 0.4 -1.5 -1 -0.6 -0.8 -0.9 0.7 -0.9 1.6 0 1.7 -0.2 0.5 -1 -1.2 -0.8 -1.2 -1 0.3 -1.6 0.9 -0.3 1.4 -1 1.1 -1.5 -0.3 -0.5 0.1 -0.9 0.8 -0.9 0.9 0 0.9 -0.3 -0.2 -1 -1.2 -0.8 -1.2 -1 0.5 -1 1.7 0 1.7 -0.2 0.5 -1 -1.2 -0.8 -1.2 -1 0.5 -1 1.7 0 1.7 -0.2 0.5 -1 -1.2 -0.8 -1.2 -1 0.5 -1 1.7 0 1.7 -0.2 0.5 -1 -1.3 -0.8 -1.2 -1 0.3 -1 1 0 1.5 -0.4 1.2 -1 -0.3 -0.5 -0.2 -1 0.4 -1 0.6 0 0.8 -0.7 0.5 -1.5 -0.4 -1 0 -1.5 1.2 -1.5 1.6 0 1.7 -0.2 0.4 -1 -1.3 -0.8 -1.3 -1 0.2 -1 1.1 0 1.5 -0.5 1.2 -1.5 -0.3 -0.8 0.2 -2.2 1.1 -3.1 0.9 -0.9 2.3 -2.7 3.2 -4 0.8 -1.3 2.2 -2.4 3 -2.4 0.8 0 1.2 -0.4 0.9 -0.9 -0.8 -1.2 8.2 -11.1 10.1 -11.1 0.8 0 1.2 -0.4 0.9 -0.8 -1 -1.6 7.2 -8.4 9.6 -8 1.5 0.2 2.3 -0.2 2.3 -1.2 0 -2.6 5.7 -6.5 21 -14.3 11.2 -5.7 25.2 -11.1 35.3 -13.7 2.4 -0.6 6 -2.6 8 -4.4 2 -1.8 4.7 -3.6 6 -4 3.5 -1.1 2.9 3.3 -1.1 7.2 -3.3 3.2 -3.9 3.5 -16.7 7.3 -4.1 1.2 -7.9 2.8 -8.3 3.5 -0.4 0.8 -2.1 1.4 -3.8 1.4 -1.6 0 -3.7 0.4 -4.7 0.9 -0.9 0.5 -5.1 2.5 -9.3 4.4 -4.2 2 -7.9 4.3 -8.2 5.2 -0.4 0.8 -1.8 1.5 -3.2 1.5 -1.4 0 -2.8 0.7 -3.1 1.5 -0.4 0.8 -1.2 1.5 -2 1.5 -0.8 0 -1.4 0.5 -1.4 1 0 0.6 -0.6 1 -1.4 1 -0.7 0 -1.6 0.9 -1.9 2 -0.3 1.1 -1.2 2 -2.1 2 -0.9 0 -1.6 0.5 -1.6 1 0 0.6 -0.9 1 -2 1 -1.8 0 -18 15.2 -18 16.9 0 0.4 -0.9 1.3 -2 2.1 -1.1 0.8 -2 2 -2 2.8 0 0.7 -0.7 1.5 -1.5 1.8 -0.8 0.4 -1.5 1.2 -1.5 1.9 0 0.8 -0.9 1.7 -2 2 -1.3 0.4 -2 1.5 -2 3.1 0 1.7 -0.5 2.4 -2 2.4 -1.3 0 -2 0.7 -2 2 0 1.2 -0.9 3.8 -2 6 -1.1 2.2 -2 4.8 -2 6 0 1.1 -0.4 2 -1 2 -0.5 0 -1 1.1 -1 2.5 0 1.8 -0.5 2.5 -1.9 2.5 -1.1 0 -2.3 -0.4 -2.6 -1z"/>
  <path d="M237 142.5 c0 -3.1 0.3 -3.5 2.5 -3.5 3 0 3 0.3 0.8 4.1 -2.3 3.8 -3.3 3.7 -3.3 -0.6z"/>
  <path d="M243.2 133.5 c0.3 -3.6 0.6 -4 3.3 -4.5 2.4 -0.4 3.1 -1.1 3.5 -3.5 0.5 -2.7 0.9 -3 4.8 -3.3 l4.2 -0.3 0 4 c0 3 -0.4 4.1 -1.5 4.1 -1 0 -1.5 1 -1.5 3 0 1.7 -0.4 3 -1 3 -0.5 0 -1 -0.7 -1 -1.5 0 -0.8 -0.4 -1.5 -1 -1.5 -0.5 0 -1 -0.4 -1 -1 0 -0.5 0.7 -1 1.5 -1 1.8 0 2 -2.6 0.3 -3.6 -0.7 -0.4 -3 1.4 -6 4.7 l-4.8 5.4 0.2 -4z"/>
  <path d="M299.3 47.3 c-0.7 -0.2 -1.3 -1.7 -1.3 -3.3 0 -2.3 0.6 -3 3.2 -3.9 1.7 -0.6 3.3 -0.9 3.6 -0.6 0.7 0.7 -2.2 7.8 -3.3 8.1 -0.6 0.1 -1.6 0 -2.2 -0.3z"/>
 </g>
 <g fill="#0073c0">
  <path d="M351.9 439.3 c-5 -13.8 -18 -26.4 -31.1 -30 -3.4 -1 -5.8 -2.2 -5.8 -3 0 -1.6 -3 -1.5 34.5 -1.3 30.1 0.1 31.1 0.2 34.2 2.3 5.5 3.7 7.3 9 7.3 21.7 l0 11 -17 0 c-10.7 0 -17 0.4 -17 1 0 2.3 -4.1 0.9 -5.1 -1.7z"/>
  <path d="M117 406.6 c0 -0.8 1.4 -1.7 3 -2.1 4 -0.9 9 0.3 9 2.1 0 1 -1.5 1.4 -6 1.4 -4.5 0 -6 -0.4 -6 -1.4z"/>
  <path d="M129.6 397.5 c-0.3 -1 -0.4 -2 -0.1 -2.3 0.3 -0.3 7.1 -0.8 15 -1 14.3 -0.4 14.5 -0.4 14.5 1.7 0 1.8 -0.6 2.1 -4.7 2.1 -2.7 0 -9.1 0.3 -14.4 0.6 -8.6 0.6 -9.6 0.5 -10.3 -1.1z"/>
  <path d="M176 395.6 c0 -2.2 0.5 -2.3 10.3 -3 30.1 -2.1 55.3 -10.3 74.6 -24.4 3.5 -2.6 7 -5.1 7.8 -5.7 2.2 -1.5 11 -10.4 11.7 -11.8 0.3 -0.7 3 -4.2 5.8 -7.9 2.9 -3.6 9.3 -13.5 14.2 -22 10.3 -17.8 15.4 -24.6 23.3 -31.8 22 -19.6 59.5 -20.2 76.4 -1.1 4.5 5.1 7.9 13.5 7.8 19.4 -0.1 9.2 -2.9 9.6 -4.8 0.7 -2.5 -11.6 -9.9 -20.8 -20.9 -25.7 -8.6 -3.9 -22.2 -4.4 -32.7 -1.2 -16.5 4.9 -28.4 15.8 -41.7 38.4 -19.6 33.4 -30.1 45.3 -51.4 58.2 -18.9 11.5 -41.7 17.7 -72.6 19.6 -7.6 0.5 -7.8 0.5 -7.8 -1.7z"/>
  <path d="M169 343.1 c0 -0.5 0.7 -1.2 1.6 -1.5 1.2 -0.4 1.5 -1.5 1.2 -3.6 -0.3 -1.7 -0.1 -3 0.4 -3 0.5 0 0.6 -0.4 0.3 -1 -0.3 -0.5 -0.2 -1 0.4 -1 0.6 0 0.8 -0.7 0.5 -1.5 -0.4 -0.8 -0.1 -1.5 0.6 -1.5 0.8 0 1 -0.9 0.6 -2.5 -0.4 -1.4 -0.3 -2.5 0.1 -2.5 0.8 0 0.7 -22.5 -0.1 -25.1 -1.3 -4.6 -2.5 -12.2 -2 -13 0.3 -0.5 0 -0.9 -0.6 -0.9 -0.7 0 -0.9 -0.8 -0.5 -2 0.3 -1.1 0.2 -2 -0.4 -2 -1 0 -4.7 -9.6 -4.5 -11.7 0.1 -0.7 -0.2 -1.3 -0.7 -1.3 -0.5 0 -0.6 -0.7 -0.3 -1.5 0.4 -0.8 0.1 -1.5 -0.7 -1.5 -0.7 0 -1 -0.3 -0.6 -0.6 0.3 -0.4 -0.1 -1.3 -0.9 -2.1 -0.8 -0.9 -1.3 -2.2 -1 -2.9 0.3 -0.8 0.1 -1.4 -0.5 -1.4 -0.6 0 -0.7 -0.4 -0.4 -1 0.3 -0.5 0.1 -1 -0.5 -1 -0.6 0 -0.8 -0.4 -0.5 -1 0.3 -0.5 0.1 -1 -0.5 -1 -0.7 0 -1 -0.7 -0.6 -1.5 0.3 -0.8 0.1 -1.5 -0.5 -1.5 -0.6 0 -0.9 -0.6 -0.7 -1.2 0.3 -0.7 -0.2 -1.9 -0.9 -2.7 -0.8 -0.8 -1.2 -2.2 -1 -3.2 0.3 -1.1 0.1 -1.9 -0.4 -1.9 -0.4 0 -0.6 -0.7 -0.3 -1.5 0.4 -0.8 0.1 -1.5 -0.5 -1.5 -0.6 0 -0.8 -0.7 -0.5 -1.5 0.4 -0.8 0.2 -1.5 -0.3 -1.5 -1.2 0 -4.7 -14.6 -3.9 -16.5 0.3 -0.8 0.1 -1.5 -0.5 -1.5 -0.6 0 -0.8 -1.6 -0.3 -4.5 0.4 -2.9 0.3 -4.5 -0.4 -4.5 -0.8 0 -1 -4.2 -0.9 -12.5 0.1 -6.9 0.6 -12.5 1.1 -12.5 0.5 0 0.6 -2 0.3 -4.5 -0.5 -3 -0.3 -4.5 0.4 -4.5 0.7 0 0.9 -1.1 0.6 -3 -0.4 -1.6 -0.3 -3 0.2 -3 0.4 0 0.6 -1.1 0.3 -2.5 -0.2 -1.4 0 -2.5 0.6 -2.5 0.6 0 0.8 -0.9 0.5 -2 -0.3 -1.1 0 -2 0.6 -2 0.5 0 0.8 -0.7 0.5 -1.5 -0.4 -0.8 -0.1 -1.5 0.6 -1.5 0.7 0 1 -0.7 0.6 -1.5 -0.3 -0.8 -0.1 -1.5 0.5 -1.5 0.6 0 0.9 -0.7 0.5 -1.5 -0.3 -0.8 -0.1 -1.5 0.5 -1.5 0.6 0 0.9 -0.7 0.5 -1.5 -0.3 -0.8 -0.1 -1.5 0.5 -1.5 0.6 0 0.7 -0.4 0.4 -1 -0.3 -0.6 -0.1 -1 0.5 -1 0.7 0 1 -0.7 0.6 -1.5 -0.3 -0.8 -0.1 -1.5 0.5 -1.5 0.6 0 0.7 -0.4 0.4 -1 -0.3 -0.5 -0.1 -1 0.5 -1 0.6 0 0.8 -0.4 0.5 -1 -0.3 -0.5 -0.1 -1 0.5 -1 0.6 0 0.8 -0.4 0.5 -1 -0.3 -0.5 -0.1 -1 0.5 -1 0.6 0 0.8 -0.4 0.5 -1 -0.3 -0.5 -0.1 -1 0.5 -1 0.6 0 0.8 -0.4 0.5 -1 -0.3 -0.5 -0.1 -1 0.5 -1 0.6 0 0.8 -0.5 0.5 -1 -0.3 -0.5 -0.1 -1 0.5 -1 0.6 0 0.9 -0.4 0.6 -0.9 -0.3 -0.5 0.1 -1.2 1 -1.5 0.8 -0.3 1.2 -1 0.9 -1.6 -0.3 -0.5 -0.1 -1 0.5 -1 0.6 0 0.8 -0.5 0.5 -1 -0.3 -0.6 0.1 -1.3 0.9 -1.6 0.9 -0.3 1.4 -1 1.1 -1.5 -0.3 -0.4 0.4 -1.3 1.5 -1.9 1.1 -0.6 1.8 -1.5 1.5 -1.9 -0.2 -0.5 0.6 -1.6 2 -2.5 1.4 -0.9 2.4 -2 2.3 -2.4 -0.3 -1.2 16.2 -17.2 17.8 -17.2 2.4 0 6.5 -3.2 6 -4.6 -0.3 -0.9 0.2 -1.4 1.5 -1.4 1.1 0 1.7 -0.4 1.4 -1 -0.3 -0.6 0.3 -1 1.5 -1 1.2 0 1.8 -0.4 1.5 -1 -0.3 -0.5 0.7 -1.2 2.2 -1.6 4.6 -1 5.5 -1.3 4.9 -2.2 -0.4 -0.7 6.9 -4.5 18.7 -9.7 2.1 -0.9 4.5 -1.4 5.2 -1.1 0.8 0.3 1.8 -0.1 2.2 -0.8 0.5 -0.7 4.2 -2.3 8.3 -3.5 4.1 -1.3 8.9 -2.7 10.6 -3.2 1.6 -0.5 4.8 -2.7 6.9 -4.9 4.4 -4.5 6.5 -5.1 6.5 -1.7 0 2.5 -2.8 5.7 -4.8 5.7 -0.7 0 -1.2 0.7 -1.2 1.5 0 1.9 -3.2 3.3 -18 8 -6.3 1.9 -15.7 5.6 -20.9 8 -5.1 2.5 -10.2 4.5 -11.2 4.5 -1.1 0 -1.9 0.7 -1.9 1.5 0 0.8 -1.1 1.7 -2.5 2.1 -1.4 0.3 -2.5 1 -2.5 1.5 0 0.5 -0.6 0.9 -1.4 0.9 -0.8 0 -1.6 0.7 -2 1.5 -0.3 0.8 -1.2 1.5 -2.1 1.5 -0.8 0 -1.5 0.7 -1.5 1.5 0 0.8 -0.6 1.5 -1.4 1.5 -0.7 0 -1.6 0.9 -1.9 2 -0.3 1.1 -1.3 2 -2.4 2 -1.4 0 -17.3 14.3 -17.3 15.6 0 0.2 -2.1 3.2 -4.6 6.6 -6.1 8.3 -14.6 26.1 -17.9 37.3 -3.2 10.9 -5.5 27 -5.5 38.8 0 16.1 4.9 34.9 17 64.7 7.8 19.2 9.2 25.4 9.7 44.5 0.3 12.6 0.1 18.3 -1 22.1 -1.5 5.8 -1.2 6 6 2.3 4.4 -2.2 12.3 -2.6 12.3 -0.6 0 0.8 -4 2.9 -9.2 4.9 -9.7 3.7 -17.8 5.5 -17.8 3.9z"/>
  <path d="M201 329.7 c0 -2.9 0.4 -3.6 2.5 -4.1 1.4 -0.4 2.5 -1.1 2.5 -1.6 0 -0.6 0.7 -1 1.5 -1 0.8 0 1.5 -0.4 1.5 -1 0 -0.5 0.7 -1 1.5 -1 0.8 0 1.5 -0.4 1.5 -1 0 -0.5 0.9 -1 2 -1 1.1 0 2 -0.7 2 -1.5 0 -0.9 0.9 -1.5 2.5 -1.5 1.8 0 2.5 -0.5 2.5 -2 0 -1.7 0.7 -2 4 -2 3.9 0 4 -0.1 4 -3.4 0 -2.7 0.9 -4.2 5 -8 2.7 -2.5 5.6 -4.6 6.5 -4.6 0.9 0 1.5 -0.9 1.5 -2.5 0 -1.8 0.9 -3.1 3 -4.3 1.6 -0.9 3 -2.4 3 -3.2 0 -1.9 16.3 -18 18.2 -18 0.7 0 2.1 -1.4 3 -3 0.9 -1.7 2.4 -3 3.3 -3 0.8 0 1.5 -0.4 1.5 -1 0 -0.5 0.7 -1 1.5 -1 0.8 0 1.5 -0.4 1.5 -1 0 -0.5 0.4 -1 1 -1 0.5 0 1.8 -0.7 2.9 -1.6 1.8 -1.6 1.6 -1.9 -4.8 -7.4 -7.2 -6.2 -14 -13.3 -18.5 -19.3 -1.6 -2.1 -3.1 -3.6 -3.3 -3.3 -0.2 0.2 1 3.4 2.6 7.1 1.8 3.9 3.1 8.5 3.1 10.7 0 3.9 0 3.9 -3.7 3.6 -2.8 -0.2 -4.1 -0.9 -4.8 -2.5 -0.5 -1.3 -1.5 -2.3 -2.1 -2.3 -2.8 0 -16.1 -19.4 -20.1 -29.3 -6.6 -16.2 -7.1 -39.5 -1.2 -57.4 1.1 -3.3 2.9 -7.1 4 -8.4 1 -1.2 2.4 -3.9 2.9 -6.1 0.6 -2.1 1.5 -3.8 2 -3.8 0.6 0 1 -0.7 1 -1.5 0 -0.8 0.5 -1.5 1 -1.5 0.6 0 1 -0.7 1 -1.5 0 -0.8 0.5 -1.5 1 -1.5 0.6 0 1 -0.6 1 -1.3 0 -2 3.3 -4.7 5.8 -4.7 1.7 0 2.2 -0.6 2.2 -2.5 0 -2.3 0.4 -2.5 4.5 -2.5 l4.5 0 -0.1 4.8 c-0.1 6.3 -1.2 9.6 -3.1 10 -1.8 0.4 -3.3 -3.9 -1.6 -4.9 0.6 -0.4 0.8 -1.4 0.5 -2.2 -0.3 -0.9 -0.1 -1.8 0.6 -2 0.7 -0.2 0.9 -0.8 0.4 -1.2 -2.1 -2.3 -13.7 12.8 -19.7 25.9 -5.1 11 -7.3 20.2 -7.4 31.6 -0.2 15.4 1.6 23 8.1 34.9 3.9 7.3 15.9 23.7 17.8 24.5 0.7 0.2 0 -2.4 -1.6 -6.6 -1.6 -3.8 -2.6 -7.4 -2.3 -7.9 0.3 -0.5 0.1 -0.9 -0.4 -0.9 -1.2 0 -5.5 -14.6 -4.8 -15.9 0.4 -0.5 0.2 -1.2 -0.4 -1.6 -0.5 -0.3 -0.7 -1.7 -0.4 -3.1 0.4 -1.6 0.2 -2.4 -0.6 -2.4 -0.8 0 -1 -0.8 -0.7 -2.2 0.4 -1.2 0.1 -2.8 -0.5 -3.5 -0.8 -1 -0.8 -1.7 0 -2.5 0.8 -0.8 1.4 -0.3 2.3 1.8 6.8 17.2 17.3 31.3 34.6 46.8 6.2 5.6 11.3 10.6 11.3 11.3 0 0.6 -2.4 2.5 -5.2 4.1 -9.6 5.4 -15.7 10.6 -27.6 23.1 -28.6 30.4 -37.5 38.4 -53.4 48 l-3.8 2.3 0 -3.5z"/>
  <path d="M337.3 204.6 c-5.2 -2.5 -13.7 -10.1 -12.8 -11.6 0.3 -0.5 0.2 -1 -0.2 -1.2 -0.5 -0.1 -2 -2 -3.5 -4 -1.7 -2.2 -4 -3.9 -5.8 -4.3 -1.6 -0.4 -4.2 -2.1 -5.6 -3.8 l-2.7 -3.2 -12.6 0 -12.6 0 -7 -4.2 c-3.9 -2.2 -9.4 -6.6 -12.3 -9.6 -4.7 -5.1 -5.7 -6.7 -5.3 -8.9 0 -0.5 -0.4 -0.8 -1 -0.8 -0.5 0 -0.8 -0.4 -0.4 -0.9 0.3 -0.5 0.1 -1.2 -0.5 -1.6 -0.6 -0.4 -0.7 -1.1 -0.4 -1.7 0.4 -0.6 0.2 -1.3 -0.4 -1.7 -1.5 -0.9 -0.3 -5.1 1.3 -5.1 0.7 0 1.6 1.6 1.9 3.5 0.4 1.9 2.2 5.7 4.1 8.6 1.9 2.8 3.5 6 3.5 7 0 1.4 0.7 1.9 2.5 1.9 1.4 0 3 0.9 3.7 2 0.7 1.1 1.8 2 2.5 2 0.6 0 1.8 0.6 2.5 1.3 3.2 3.2 10.2 4.5 21.9 4 l11.4 -0.5 2.3 3.2 c1.3 1.7 4.4 4 6.8 5 2.5 1.1 4.4 2.6 4.4 3.5 0 0.8 0.4 1.5 0.8 1.5 0.5 0 2.3 2.2 4.1 4.9 3.3 5.1 9.9 10.8 13.9 11.8 1.5 0.3 2.2 1.3 2.2 2.9 0 3 -0.3 3 -6.7 0z"/>
  <path d="M345 204.6 c0 -2.2 0.5 -2.6 2.8 -2.6 1.5 0 4.7 -0.9 7.1 -2 2.4 -1.1 4.9 -2 5.7 -2 0.8 0 1.4 -0.4 1.4 -1 0 -0.5 1.6 -1 3.5 -1 l3.5 0 -1.9 3.3 c-1 1.7 -2.3 3.1 -2.9 3 -0.6 -0.2 -3 0.6 -5.4 1.6 -2.4 1 -6.4 2.2 -9 2.6 -4.7 0.6 -4.8 0.5 -4.8 -1.9z"/>
  <path d="M322.8 107 c-2.2 -7.1 -2.3 -11 -0.4 -11 2.3 0 6.8 7.6 7.4 12.5 0.5 4.4 0.4 4.5 -2.4 4.5 -2.7 0 -3 -0.5 -4.6 -6z"/>
  <path d="M291.2 63.2 c-0.7 -2.2 -1.9 -4.5 -2.7 -5.2 -0.8 -0.7 -1.5 -2.3 -1.5 -3.6 0 -2 -0.5 -2.4 -3.1 -2.4 -5.1 0 -2.9 -2.2 7.4 -7.3 7.6 -3.8 10 -4.6 11.4 -3.8 1.7 1 1.7 1 0.1 1.1 -1 0 -1.8 0.5 -1.8 1 0 0.6 0.5 1 1.1 1 0.7 0 0.9 0.9 0.3 2.8 -0.4 1.5 -1.7 6.5 -2.9 11.2 -1.9 7.7 -2.3 8.5 -4.6 8.8 -2.2 0.3 -2.7 -0.3 -3.7 -3.6z"/>
 </g>
 <g fill="#008dda">
  <path d="M106 428 l0 -14 4.3 -4.5 4.4 -4.5 102.4 0 c114.5 0 107.6 -0.4 118.9 7.2 9.1 6 17.9 18 19.6 26.6 l0.7 3.2 -125.2 0 -125.1 0 0 -14z"/>
  <path d="M129.2 396.5 c-0.3 -0.5 -0.8 -6 -1 -12.2 l-0.5 -11.3 2.6 0 c1.4 0 4.5 0.8 6.9 1.8 15.1 6.5 38.3 8.2 56.6 4.2 6 -1.3 17.2 -4.8 19.5 -6.1 0.9 -0.5 4.2 -1.9 7.2 -3 3 -1.1 5.5 -2.4 5.5 -2.9 0 -0.5 1 -1.2 2.2 -1.6 1.2 -0.3 3.1 -1.5 4.2 -2.5 1.1 -1.1 2.6 -1.9 3.3 -1.9 0.7 0 1.3 -0.4 1.3 -1 0 -0.5 0.6 -1 1.4 -1 0.8 0 1.6 -0.7 2 -1.5 0.3 -0.8 1.2 -1.5 2 -1.5 0.9 0 2 -0.9 2.6 -2 0.6 -1.1 1.6 -2 2.3 -2 1.6 0 13.7 -12.2 13.7 -13.7 0 -0.7 1.4 -2.2 3 -3.5 1.7 -1.2 3 -2.8 3 -3.5 0 -0.7 0.5 -1.3 1 -1.3 0.6 0 1.5 -1.1 2 -2.5 0.5 -1.4 1.4 -2.5 2 -2.5 0.5 0 1 -0.7 1 -1.5 0 -0.9 0.7 -1.8 1.5 -2.1 0.8 -0.4 1.5 -1.2 1.5 -2 0 -0.8 0.5 -1.4 1 -1.4 0.6 0 1 -0.7 1 -1.5 0 -0.9 0.7 -1.8 1.5 -2.1 0.8 -0.4 1.5 -1.2 1.5 -2 0 -0.8 0.5 -1.4 1 -1.4 0.6 0 1 -0.7 1 -1.5 0 -0.8 0.5 -1.5 1 -1.5 0.6 0 1 -0.7 1 -1.5 0 -0.8 0.9 -1.9 2 -2.5 1.1 -0.6 2 -1.7 2 -2.5 0 -0.8 0.9 -1.9 2 -2.5 1.1 -0.6 2 -1.4 2 -1.9 0 -1.1 15.8 -17.1 16.9 -17.1 0.5 0 1.1 -0.7 1.5 -1.5 0.3 -0.8 1.2 -1.5 2.1 -1.5 0.8 0 1.5 -0.4 1.5 -1 0 -0.5 0.7 -1 1.5 -1 0.8 0 1.5 -0.4 1.5 -0.8 0 -0.4 1.7 -1.4 3.8 -2.1 2 -0.8 4.4 -2 5.3 -2.7 4.1 -3.6 13.2 -5.7 27.4 -6.1 15.8 -0.6 22.4 0.6 32.9 5.9 7.6 3.8 9.9 5.8 14.3 13.1 4.3 7.2 6.3 14.2 6.3 22.9 0 5.6 -0.3 6.6 -1.5 6.2 -0.8 -0.4 -1.5 -1.7 -1.5 -3 0 -5.2 -4.3 -13.8 -9.4 -18.9 -13.7 -13.7 -35.1 -16.1 -55.5 -6.3 -6.8 3.3 -10.1 5.7 -16.9 12.5 -4.6 4.6 -8.2 8.7 -7.9 9 0.4 0.3 -0.2 1.3 -1.3 2.2 -1.1 0.9 -2 2.2 -2.2 3 -0.2 0.8 -1.1 2.3 -2.1 3.3 -1 1 -1.5 2.3 -1.2 2.8 0.4 0.6 0.2 1 -0.3 1 -1 0 -6.9 9.7 -7.4 12.1 -0.2 0.7 -1.1 2.1 -2.1 3.1 -1 1 -1.5 2.3 -1.2 2.7 0.2 0.5 -0.2 1.2 -1.1 1.5 -0.8 0.3 -1.3 1 -1 1.5 0.3 0.5 -0.1 1.2 -1 1.5 -0.8 0.3 -1.3 1 -1 1.5 0.3 0.5 -0.1 1.2 -1 1.5 -0.9 0.4 -1.5 0.9 -1.2 1.1 0.3 0.3 -1.5 2.6 -3.8 5.2 -2.4 2.5 -4.2 4.9 -4.1 5.2 0.1 0.6 -9.2 9.9 -11.6 11.6 -0.8 0.6 -4.3 3.1 -7.8 5.7 -19.3 14.1 -44.5 22.3 -74.6 24.4 -5.7 0.4 -10.3 1.1 -10.3 1.5 0 1.2 -49 0.6 -49.8 -0.6z"/>
  <path d="M170.9 341.3 c5.1 -9.4 6.6 -31.4 3.2 -47.8 -2.1 -10 -2.8 -12 -9.7 -29 -10.6 -26.2 -14.2 -40.7 -15.1 -60.5 -1.2 -28.5 6.3 -56.6 21.4 -79.3 5.2 -7.8 21.9 -25.9 23.7 -25.5 0.6 0.1 3.1 -1.7 5.6 -4 10 -9.5 35.4 -21.7 56.8 -27.2 2.9 -0.7 5.9 -2.7 9.3 -6.1 2.8 -2.7 5.4 -4.9 5.8 -4.9 0.4 0 2.1 -1.3 3.9 -3 4.5 -4.1 6.5 -5 10.6 -5 3.1 0 3.6 0.3 3.6 2.4 0 1.3 0.7 2.9 1.5 3.6 0.8 0.7 2 3 2.7 5.1 0.6 2.2 1.6 3.9 2.2 3.9 0.7 0 1.1 2.2 1.1 5.4 0 4.9 0.4 5.9 3.3 8.9 1.8 1.9 4.5 4.1 6 4.8 6 3 18.3 13.6 18 15.3 -0.4 2.3 2.6 11.6 3.8 11.6 0.6 0 1.5 1.7 1.9 3.8 0.9 5.1 6.2 13.2 17.4 26.8 2.4 2.9 8.6 11.4 13.6 18.4 1.1 1.5 4.3 5.7 7 9.2 4.8 6.1 5 6.5 5 12.8 0 7.2 -3 15 -6.5 17.3 -1.1 0.6 -2 1.7 -2 2.4 0 0.7 -0.6 1 -1.3 0.7 -0.7 -0.2 -3.3 0.4 -5.8 1.5 -2.4 1.2 -5.6 2.1 -7.1 2.1 -1.6 0 -2.8 0.5 -2.8 1 0 2.7 -9.6 -0.4 -16.3 -5.4 -1.6 -1.1 -5.2 -5.4 -7.9 -9.3 -4.6 -6.6 -5.8 -7.8 -8 -7.4 -0.4 0 -2.7 -1.8 -5 -4.1 -4 -3.8 -4.8 -4.2 -10 -4.4 -3.2 -0.1 -5.8 0.1 -5.8 0.5 0 0.5 -9.2 0.7 -11.5 0.1 -0.5 -0.1 -1.4 -0.2 -1.9 -0.1 -0.5 0.1 -1.2 -0.2 -1.5 -0.6 -0.3 -0.4 -2.8 -1.9 -5.5 -3.3 -6.4 -3.3 -14.7 -11.5 -17.6 -17.6 -2 -4 -2.4 -6.5 -2.5 -13.9 0 -4.9 0.4 -10.7 0.9 -12.7 0.7 -3.3 0.6 -3.8 -1 -3.8 -0.9 0 -1.4 0.3 -1.1 0.7 0.8 0.8 -2.2 4.3 -3.6 4.3 -1.8 0 -4.6 3.1 -4 4.6 0.3 0.8 -0.1 1.4 -1.1 1.4 -1 0 -1.3 0.6 -1 1.5 0.4 0.9 0 1.5 -1 1.5 -1 0 -1.3 0.6 -1 1.5 0.4 1 0 1.5 -1.1 1.5 -0.9 0 -1.3 0.5 -1 1 0.3 0.6 0.1 1 -0.4 1 -0.6 0 -1 0.3 -0.9 0.8 0.4 1.2 -2.4 7.2 -3.4 7.2 -0.5 0 -0.6 0.4 -0.3 1 0.3 0.6 0.1 1 -0.5 1 -0.6 0 -0.8 0.4 -0.5 1 0.3 0.5 0.1 1 -0.5 1 -0.7 0 -1 0.7 -0.6 1.5 0.3 0.8 0.1 1.5 -0.5 1.5 -0.6 0 -0.9 0.7 -0.5 1.5 0.3 0.8 0.1 1.5 -0.5 1.5 -0.6 0 -0.9 0.7 -0.5 1.5 0.3 0.8 0.1 1.5 -0.5 1.5 -0.7 0 -0.9 1 -0.5 2.5 0.4 1.5 0.2 2.5 -0.4 2.5 -0.7 0 -0.9 1.3 -0.4 3.5 0.4 2.2 0.2 3.5 -0.4 3.5 -0.7 0 -1.1 3 -1.1 8 0 4.4 0.4 8 0.9 8 0.5 0 0.7 1.4 0.4 3 -0.4 1.8 -0.2 3 0.4 3 0.5 0 0.8 0.8 0.5 1.9 -1.4 5.2 11 27.8 21.7 39.5 5.8 6.2 7.4 6.2 4.2 -0.1 -4.4 -8.6 -11.3 -32.6 -11.2 -39.1 0 -1 2.4 2.9 5.3 8.6 7.6 15.1 18.6 28.1 35 41.7 5.2 4.3 5.6 6.8 1.1 7.9 -1.4 0.4 -2.2 1.1 -1.9 1.6 0.3 0.6 -0.3 1 -1.5 1 -1.2 0 -1.8 0.5 -1.5 1 0.3 0.6 -0.3 1 -1.5 1 -1.2 0 -1.8 0.5 -1.5 1 0.3 0.6 -0.3 1 -1.3 1 -2 0 -4.6 2.3 -3.7 3.2 0.3 0.2 -0.7 1.1 -2.3 1.9 -4 2 -19.1 17 -18.5 18.4 0.2 0.7 -1.2 2.2 -3.1 3.3 -2.3 1.4 -3.4 2.6 -3 3.6 0.3 0.9 -0.5 2.1 -2.3 3.2 -3.9 2.4 -11.3 9.6 -11.3 10.9 0 1.7 -4.4 5.5 -6.2 5.5 -0.9 0 -1.8 0.9 -2.1 2 -0.3 1.2 -1.4 2 -2.6 2 -1.2 0 -2.1 0.6 -2.1 1.5 0 0.8 -0.9 1.5 -2.1 1.5 -1.1 0 -1.7 0.5 -1.4 1 0.3 0.6 -0.3 1 -1.5 1 -1.2 0 -1.8 0.5 -1.5 1 0.3 0.6 -0.3 1 -1.5 1 -1.2 0 -1.9 0.4 -1.6 0.9 0.4 0.5 -0.7 1.2 -2.4 1.6 -1.7 0.4 -2.8 1.1 -2.5 1.5 0.8 1.3 -9.1 6.1 -13.2 6.5 -1.8 0.2 -4.4 1 -5.6 1.7 -1.2 0.8 -4.4 2 -7.2 2.7 -2.7 0.6 -5.8 1.4 -6.8 1.7 -1.5 0.5 -1.7 0.3 -0.8 -1.3z m29.6 -52.3 c5.6 -21.5 3 -38.3 -10.5 -67 -12.1 -26 -15.6 -37.3 -17 -55 -0.6 -8.3 -0.8 -8.8 -1.1 -4 -1.1 18.9 2.3 38 13.1 73.3 7.9 25.3 9.3 33.5 9.4 52.5 l0.1 16.4 2.2 -5.1 c1.2 -2.7 2.9 -7.8 3.8 -11.1z"/>
 </g>
 <g fill="#04b3f7">
  <path d="M160.1 383.9 c-9.6 -1.1 -18.1 -3.1 -26.3 -6.2 -5.6 -2.1 -5.8 -2.3 -5.8 -5.8 l0 -3.7 3.8 0.9 c7 1.6 26.5 2.2 35.8 1 13.4 -1.6 30.6 -8 42.8 -15.9 12.4 -8 32.6 -27.6 50.3 -48.7 18 -21.5 32.4 -34 48.5 -41.8 29.8 -14.6 62.7 -11.6 83.2 7.4 5.4 5 11.8 13.9 10.1 13.9 -0.4 0 -3.2 -2.2 -6.3 -4.9 -6.8 -5.8 -15.5 -10.3 -24.3 -12.6 -12.3 -3.2 -35.7 -0.5 -41.8 4.9 -0.9 0.7 -3.3 1.9 -5.3 2.7 -2 0.7 -3.5 1.6 -3.2 2.1 0.3 0.4 -0.4 0.8 -1.5 0.8 -1.2 0 -2.1 0.5 -2.1 1 0 0.6 -0.7 1 -1.5 1 -0.9 0 -1.8 0.7 -2.1 1.5 -0.4 0.8 -1 1.5 -1.5 1.5 -1.2 0 -16.3 15.3 -16.1 16.2 0.1 0.4 -0.9 1.5 -2.3 2.4 -1.4 0.9 -2.2 2 -2 2.5 0.3 0.4 -0.6 1.6 -2 2.5 -1.3 0.9 -2.2 2 -1.9 2.5 0.3 0.5 -0.2 1.2 -1 1.5 -0.9 0.3 -1.3 1 -1 1.5 0.3 0.5 -0.2 1.2 -1 1.5 -0.9 0.3 -1.4 1 -1.1 1.5 0.3 0.4 -0.4 1.3 -1.5 1.9 -1.1 0.6 -1.8 1.5 -1.5 2.1 0.4 0.5 -0.1 1.2 -0.9 1.5 -0.9 0.3 -1.4 1 -1.1 1.5 0.3 0.4 -0.4 1.3 -1.5 1.9 -1.1 0.6 -1.8 1.5 -1.5 2 0.3 0.5 -0.4 1.4 -1.5 2 -1.1 0.6 -1.8 1.5 -1.5 2 0.3 0.5 -0.4 1.5 -1.5 2.3 -1.1 0.7 -1.8 1.6 -1.5 1.9 0.3 0.3 -1.1 1.8 -3 3.3 -2 1.5 -3.4 3 -3 3.3 0.8 0.8 -12.6 14.2 -14.2 14.2 -0.7 0 -1.7 0.9 -2.3 2 -0.6 1.1 -1.7 2 -2.6 2 -0.8 0 -1.7 0.7 -2 1.5 -0.4 0.8 -1.2 1.5 -2 1.5 -0.8 0 -1.4 0.5 -1.4 1 0 0.6 -0.6 1 -1.3 1 -0.7 0 -2.2 0.8 -3.3 1.9 -1.1 1 -3 2.2 -4.2 2.5 -1.2 0.4 -2.2 1.1 -2.2 1.6 0 0.5 -2.5 1.8 -5.5 2.9 -3 1.1 -6.3 2.5 -7.2 3 -3.1 1.7 -14.6 5.1 -22.3 6.5 -10.5 2 -24 2.6 -33.9 1.5z"/>
  <path d="M175 338.5 c0 -1.5 5.6 -8.5 6.8 -8.5 0.8 0 0.1 1.6 -1.8 4 -3.2 4 -5 5.6 -5 4.5z"/>
  <path d="M190.4 106.8 c1.5 -1.8 3 -4 3.3 -4.8 0.3 -0.8 2.4 -3.1 4.6 -5 4.7 -4 4.1 -2.8 -2.8 6.3 -2.7 3.6 -5.6 6.6 -6.4 6.7 -0.9 0 -0.4 -1.2 1.3 -3.2z"/>
 </g>
 <g fill="#6bd9ff">
  <path d="M182.9 325.8 c6.5 -11.9 8.5 -20.9 8.5 -36.8 -0.1 -16 -1.9 -25.6 -9.4 -49.7 -14.3 -46.7 -16.7 -70.1 -9.9 -97.1 3.2 -13 15.7 -35.3 21.6 -38.6 1.7 -0.9 1.7 -0.9 0.1 1.5 -13.4 19.1 -18.5 35.8 -17.5 57.4 0.8 18.4 5.7 34.6 17.9 58.9 9.4 18.7 13.9 40.3 11.9 56.5 -1.6 12.3 -3.7 19.6 -9.1 30.6 -4.7 9.6 -14.2 23.4 -16.8 24.3 -0.7 0.2 0.6 -2.9 2.7 -7z"/>
 </g>
</svg>